<svg width="20" height="20" viewBox="0 0 20 20" fill="none" xmlns="http://www.w3.org/2000/svg">
<defs><clipPath id="fus"><circle cx="10" cy="10" r="10"/></clipPath></defs>
<g clip-path="url(#fus)">
<rect width="20" height="20" fill="#F4F5F7"/>
<rect y="0.000" width="20" height="1.538" fill="#B22234"/>
<rect y="3.077" width="20" height="1.538" fill="#B22234"/>
<rect y="6.154" width="20" height="1.538" fill="#B22234"/>
<rect y="9.231" width="20" height="1.538" fill="#B22234"/>
<rect y="12.308" width="20" height="1.538" fill="#B22234"/>
<rect y="15.385" width="20" height="1.538" fill="#B22234"/>
<rect y="18.462" width="20" height="1.538" fill="#B22234"/>
<rect width="8.2" height="10.769" fill="#3C3B6E"/>
<circle cx="0.82" cy="1.08" r="0.42" fill="#FFFFFF"/>
<circle cx="2.46" cy="1.08" r="0.42" fill="#FFFFFF"/>
<circle cx="4.10" cy="1.08" r="0.42" fill="#FFFFFF"/>
<circle cx="5.74" cy="1.08" r="0.42" fill="#FFFFFF"/>
<circle cx="7.38" cy="1.08" r="0.42" fill="#FFFFFF"/>
<circle cx="1.64" cy="3.23" r="0.42" fill="#FFFFFF"/>
<circle cx="3.28" cy="3.23" r="0.42" fill="#FFFFFF"/>
<circle cx="4.92" cy="3.23" r="0.42" fill="#FFFFFF"/>
<circle cx="6.56" cy="3.23" r="0.42" fill="#FFFFFF"/>
<circle cx="0.82" cy="5.38" r="0.42" fill="#FFFFFF"/>
<circle cx="2.46" cy="5.38" r="0.42" fill="#FFFFFF"/>
<circle cx="4.10" cy="5.38" r="0.42" fill="#FFFFFF"/>
<circle cx="5.74" cy="5.38" r="0.42" fill="#FFFFFF"/>
<circle cx="7.38" cy="5.38" r="0.42" fill="#FFFFFF"/>
<circle cx="1.64" cy="7.54" r="0.42" fill="#FFFFFF"/>
<circle cx="3.28" cy="7.54" r="0.42" fill="#FFFFFF"/>
<circle cx="4.92" cy="7.54" r="0.42" fill="#FFFFFF"/>
<circle cx="6.56" cy="7.54" r="0.42" fill="#FFFFFF"/>
<circle cx="0.82" cy="9.69" r="0.42" fill="#FFFFFF"/>
<circle cx="2.46" cy="9.69" r="0.42" fill="#FFFFFF"/>
<circle cx="4.10" cy="9.69" r="0.42" fill="#FFFFFF"/>
<circle cx="5.74" cy="9.69" r="0.42" fill="#FFFFFF"/>
<circle cx="7.38" cy="9.69" r="0.42" fill="#FFFFFF"/>
</g></svg>
