<svg style="color:#BBC6CD" xmlns="http://www.w3.org/2000/svg" viewBox="0 0 24 24" width="24" height="24" fill="none">
<g transform="translate(2.0000 2.0002) scale(1.000005)" vector-effect="non-scaling-stroke">
<g id="Vector">
<path d="M9.99979 11.8486C7.75256 11.8486 5.92432 13.6769 5.92432 15.9241C5.92432 18.1713 7.75256 19.9996 9.99979 19.9996C12.247 19.9996 14.0753 18.1713 14.0753 15.9241C14.0753 13.6769 12.247 11.8486 9.99979 11.8486ZM11.1603 16.2559C11.3891 16.4847 11.3891 16.8557 11.1603 17.0846C11.0458 17.199 10.8959 17.2562 10.746 17.2562C10.596 17.2562 10.446 17.199 10.3317 17.0846L9.99979 16.7527L9.66795 17.0846C9.55354 17.199 9.40357 17.2562 9.25365 17.2562C9.10373 17.2562 8.95373 17.199 8.83936 17.0846C8.61053 16.8558 8.61053 16.4848 8.83936 16.2559L9.17119 15.9241L8.83936 15.5923C8.61053 15.3635 8.61053 14.9925 8.83936 14.7636C9.06814 14.5348 9.43916 14.5348 9.66799 14.7636L9.99982 15.0955L10.3317 14.7636C10.5604 14.5348 10.9315 14.5348 11.1603 14.7636C11.3891 14.9924 11.3891 15.3634 11.1603 15.5923L10.8285 15.9241L11.1603 16.2559Z" fill="currentColor"/>
<path d="M15.9244 6.01677C13.6772 6.01677 11.849 7.84501 11.849 10.0922C11.849 12.3395 13.6772 14.1677 15.9244 14.1677C18.1717 14.1677 19.9999 12.3395 19.9999 10.0922C19.9999 7.84505 18.1717 6.01677 15.9244 6.01677ZM16.796 10.9638C16.5631 11.1966 16.2536 11.3248 15.9244 11.3248C15.5951 11.3248 15.2856 11.1966 15.0528 10.9638C14.5722 10.4833 14.5722 9.7013 15.0528 9.22071C15.2856 8.9879 15.5951 8.8597 15.9244 8.8597C16.2536 8.8597 16.5631 8.98794 16.796 9.22071C17.2765 9.7013 17.2765 10.4833 16.796 10.9638Z" fill="currentColor"/>
<path d="M9.99995 0C7.75272 0 5.92448 1.82824 5.92448 4.07547C5.92448 6.3227 7.75272 8.15094 9.99995 8.15094C12.2472 8.15094 14.0754 6.3227 14.0754 4.07547C14.0754 1.82824 12.2472 0 9.99995 0ZM11.4611 4.79477C11.4376 4.83613 11.3938 4.86168 11.3463 4.86168H8.65362C8.60608 4.86168 8.56221 4.83613 8.53882 4.79477C8.51538 4.7534 8.516 4.70262 8.54046 4.66188L9.88678 2.41582C9.91061 2.37605 9.95362 2.35172 9.99995 2.35172C10.0463 2.35172 10.0893 2.37605 10.1131 2.41582L11.4594 4.66188C11.4839 4.70266 11.4845 4.7534 11.4611 4.79477Z" fill="currentColor"/>
<path d="M4.07547 6.01677C1.82824 6.01677 0 7.84505 0 10.0922C0 12.3395 1.82824 14.1677 4.07547 14.1677C6.3227 14.1677 8.15094 12.3395 8.15094 10.0922C8.15094 7.84501 6.3227 6.01677 4.07547 6.01677ZM5.29383 11.0514C5.29383 11.1377 5.22387 11.2076 5.13758 11.2076H3.07324C2.98695 11.2076 2.91699 11.1377 2.91699 11.0514V9.13314C2.91699 9.04685 2.98695 8.97689 3.07324 8.97689H5.13758C5.22387 8.97689 5.29383 9.04685 5.29383 9.13314V11.0514Z" fill="currentColor"/>
</g>
</g>
</svg>
