<svg preserveAspectRatio="none" overflow="visible" style="display: block;" width="14.3563" height="13.9296" viewBox="0 0 14.3563 13.9296" fill="none" xmlns="http://www.w3.org/2000/svg">
<g id="Group">
<g id="Vector">
</g>
<path id="Vector_2" fill-rule="evenodd" clip-rule="evenodd" d="M12.8692 0.0839036C13.0457 0.00961145 13.2389 -0.0160114 13.4287 0.00970163C13.6185 0.0354147 13.7979 0.111524 13.9483 0.230107C14.0986 0.348691 14.2145 0.505413 14.2838 0.683963C14.353 0.862512 14.3731 1.05636 14.3421 1.24533L12.7221 11.0718C12.5649 12.0196 11.5249 12.5632 10.6556 12.091C9.92849 11.696 8.84849 11.0875 7.87706 10.4525C7.39135 10.1346 5.90349 9.11676 6.08635 8.39248C6.24349 7.77319 8.74349 5.44605 10.1721 4.06248C10.7328 3.5189 10.4771 3.20533 9.81492 3.70533C8.17063 4.94676 5.53063 6.83462 4.65778 7.36605C3.88778 7.83462 3.48635 7.91462 3.00635 7.83462C2.13063 7.6889 1.31849 7.46319 0.655634 7.18819C-0.24008 6.81676 -0.196509 5.58533 0.65492 5.22676L12.8692 0.0839036Z" fill="#0794FF"/>
</g>
</svg>
